<svg width="178" height="41" viewBox="0 0 178 41" fill="none" xmlns="http://www.w3.org/2000/svg">
<path d="M11.125 8.2H13.5435V11.0941H11.125V8.2Z" fill="#FF9131"/>
<path d="M13.5435 8.2H16.4457V11.0941H13.5435V8.2Z" fill="#FF9131"/>
<path d="M16.4457 8.2H19.3478V11.0941H16.4457V8.2Z" fill="#FF9131"/>
<path d="M19.3478 8.2H21.7663V11.0941H19.3478V8.2Z" fill="#FF9131"/>
<path d="M5.80435 11.0941H8.22283V13.5059H5.80435V11.0941Z" fill="#FF9131"/>
<path d="M8.22283 11.0941H11.125V13.5059H8.22283V11.0941Z" fill="#FF9131"/>
<path d="M11.125 11.0941H13.5435V13.5059H11.125V11.0941Z" fill="#FF9131"/>
<path d="M13.5435 11.0941H16.4457V13.5059H13.5435V11.0941Z" fill="#FF9131"/>
<path d="M16.4457 11.0941H19.3478V13.5059H16.4457V11.0941Z" fill="#FF9131"/>
<path d="M19.3478 11.0941H21.7663V13.5059H19.3478V11.0941Z" fill="#FF9131"/>
<path d="M21.7663 11.0941H25.1522V13.5059H21.7663V11.0941Z" fill="#FF9131"/>
<path d="M25.1522 11.0941H27.5707V13.5059H25.1522V11.0941Z" fill="#FF9131"/>
<path d="M2.41848 13.5059H5.80435V15.9176H2.41848V13.5059Z" fill="#FF9131"/>
<path d="M5.80435 13.5059H8.22283V15.9176H5.80435V13.5059Z" fill="#FF9131"/>
<path d="M8.22283 13.5059H11.125V15.9176H8.22283V13.5059Z" fill="#FF9131"/>
<path d="M11.125 13.5059H13.5435V15.9176H11.125V13.5059Z" fill="#FF9131"/>
<path d="M13.5435 13.5059H16.4457V15.9176H13.5435V13.5059Z" fill="#FF9131"/>
<path d="M16.4457 13.5059H19.3478V15.9176H16.4457V13.5059Z" fill="#FF9131"/>
<path d="M19.3478 13.5059H21.7663V15.9176H19.3478V13.5059Z" fill="#FF9131"/>
<path d="M21.7663 13.5059H25.1522V15.9176H21.7663V13.5059Z" fill="#FF9131"/>
<path d="M25.1522 13.5059H27.5707V15.9176H25.1522V13.5059Z" fill="#FF9131"/>
<path d="M27.5707 13.5059H29.9891V15.9176H27.5707V13.5059Z" fill="#FF9131"/>
<path d="M2.41848 15.9176H5.80435V19.2941H2.41848V15.9176Z" fill="#FF9131"/>
<path d="M5.80435 15.9176H8.22283V19.2941H5.80435V15.9176Z" fill="#FF9131"/>
<path d="M8.22283 15.9176H11.125V19.2941H8.22283V15.9176Z" fill="#FF9131"/>
<path d="M11.125 15.9176H13.5435V19.2941H11.125V15.9176Z" fill="#FF9131"/>
<path d="M13.5435 15.9176H16.4457V19.2941H13.5435V15.9176Z" fill="#FF9131"/>
<path d="M16.4457 15.9176H19.3478V19.2941H16.4457V15.9176Z" fill="#FF9131"/>
<path d="M19.3478 15.9176H21.7663V19.2941H19.3478V15.9176Z" fill="#FF9131"/>
<path d="M21.7663 15.9176H25.1522V19.2941H21.7663V15.9176Z" fill="#FF9131"/>
<path d="M25.1522 15.9176H27.5707V19.2941H25.1522V15.9176Z" fill="#FF9131"/>
<path d="M27.5707 15.9176H29.9891V19.2941H27.5707V15.9176Z" fill="#FF9131"/>
<path d="M0 19.2941H2.41848V21.7059H0V19.2941Z" fill="#FF9131"/>
<path d="M2.41848 19.2941H5.80435V21.7059H2.41848V19.2941Z" fill="#FF9131"/>
<path d="M5.80435 19.2941H8.22283V21.7059H5.80435V19.2941Z" fill="#FF9131"/>
<path d="M8.22283 19.2941H11.125V21.7059H8.22283V19.2941Z" fill="#FF9131"/>
<path d="M11.125 19.2941H13.5435V21.7059H11.125V19.2941Z" fill="#FF9131"/>
<path d="M13.5435 19.2941H16.4457V21.7059H13.5435V19.2941Z" fill="#FF9131"/>
<path d="M16.4457 19.2941H19.3478V21.7059H16.4457V19.2941Z" fill="#FF9131"/>
<path d="M19.3478 19.2941H21.7663V21.7059H19.3478V19.2941Z" fill="#FF9131"/>
<path d="M21.7663 19.2941H25.1522V21.7059H21.7663V19.2941Z" fill="#FF9131"/>
<path d="M25.1522 19.2941H27.5707V21.7059H25.1522V19.2941Z" fill="#FF9131"/>
<path d="M27.5707 19.2941H29.9891V21.7059H27.5707V19.2941Z" fill="#FF9131"/>
<path d="M29.9891 19.2941H32.8913V21.7059H29.9891V19.2941Z" fill="#FF9131"/>
<path d="M0 21.7059H2.41848V24.6H0V21.7059Z" fill="#FF9131"/>
<path d="M2.41848 21.7059H5.80435V24.6H2.41848V21.7059Z" fill="#FF9131"/>
<path d="M5.80435 21.7059H8.22283V24.6H5.80435V21.7059Z" fill="#FF9131"/>
<path d="M8.22283 21.7059H11.125V24.6H8.22283V21.7059Z" fill="#FF9131"/>
<path d="M11.125 21.7059H13.5435V24.6H11.125V21.7059Z" fill="#FF9131"/>
<path d="M13.5435 21.7059H16.4457V24.6H13.5435V21.7059Z" fill="#FF9131"/>
<path d="M16.4457 21.7059H19.3478V24.6H16.4457V21.7059Z" fill="#FF9131"/>
<path d="M19.3478 21.7059H21.7663V24.6H19.3478V21.7059Z" fill="#FF9131"/>
<path d="M21.7663 21.7059H25.1522V24.6H21.7663V21.7059Z" fill="#FF9131"/>
<path d="M25.1522 21.7059H27.5707V24.6H25.1522V21.7059Z" fill="#FF9131"/>
<path d="M27.5707 21.7059H29.9891V24.6H27.5707V21.7059Z" fill="#FF9131"/>
<path d="M29.9891 21.7059H32.8913V24.6H29.9891V21.7059Z" fill="#FF9131"/>
<path d="M0 24.6H2.41848V27.4941H0V24.6Z" fill="#FF9131"/>
<path d="M2.41848 24.6H5.80435V27.4941H2.41848V24.6Z" fill="#FF9131"/>
<path d="M5.80435 24.6H8.22283V27.4941H5.80435V24.6Z" fill="#FF9131"/>
<path d="M8.22283 24.6H11.125V27.4941H8.22283V24.6Z" fill="#FF9131"/>
<path d="M11.125 24.6H13.5435V27.4941H11.125V24.6Z" fill="#FF9131"/>
<path d="M13.5435 24.6H16.4457V27.4941H13.5435V24.6Z" fill="#FF9131"/>
<path d="M16.4457 24.6H19.3478V27.4941H16.4457V24.6Z" fill="#FF9131"/>
<path d="M19.3478 24.6H21.7663V27.4941H19.3478V24.6Z" fill="#FF9131"/>
<path d="M21.7663 24.6H25.1522V27.4941H21.7663V24.6Z" fill="#FF9131"/>
<path d="M25.1522 24.6H27.5707V27.4941H25.1522V24.6Z" fill="#FF9131"/>
<path d="M27.5707 24.6H29.9891V27.4941H27.5707V24.6Z" fill="#FF9131"/>
<path d="M29.9891 24.6H32.8913V27.4941H29.9891V24.6Z" fill="#FF9131"/>
<path d="M0 27.4941H2.41848V29.9059H0V27.4941Z" fill="#FF9131"/>
<path d="M2.41848 27.4941H5.80435V29.9059H2.41848V27.4941Z" fill="#FF9131"/>
<path d="M5.80435 27.4941H8.22283V29.9059H5.80435V27.4941Z" fill="#FF9131"/>
<path d="M8.22283 27.4941H11.125V29.9059H8.22283V27.4941Z" fill="#FF9131"/>
<path d="M11.125 27.4941H13.5435V29.9059H11.125V27.4941Z" fill="#FF9131"/>
<path d="M13.5435 27.4941H16.4457V29.9059H13.5435V27.4941Z" fill="#FF9131"/>
<path d="M16.4457 27.4941H19.3478V29.9059H16.4457V27.4941Z" fill="#FF9131"/>
<path d="M19.3478 27.4941H21.7663V29.9059H19.3478V27.4941Z" fill="#FF9131"/>
<path d="M21.7663 27.4941H25.1522V29.9059H21.7663V27.4941Z" fill="#FF9131"/>
<path d="M25.1522 27.4941H27.5707V29.9059H25.1522V27.4941Z" fill="#FF9131"/>
<path d="M27.5707 27.4941H29.9891V29.9059H27.5707V27.4941Z" fill="#FF9131"/>
<path d="M29.9891 27.4941H32.8913V29.9059H29.9891V27.4941Z" fill="#FF9131"/>
<path d="M2.41848 29.9059H5.80435V32.8H2.41848V29.9059Z" fill="#FF9131"/>
<path d="M5.80435 29.9059H8.22283V32.8H5.80435V29.9059Z" fill="#FF9131"/>
<path d="M8.22283 29.9059H11.125V32.8H8.22283V29.9059Z" fill="#FF9131"/>
<path d="M11.125 29.9059H13.5435V32.8H11.125V29.9059Z" fill="#FF9131"/>
<path d="M13.5435 29.9059H16.4457V32.8H13.5435V29.9059Z" fill="#FF9131"/>
<path d="M16.4457 29.9059H19.3478V32.8H16.4457V29.9059Z" fill="#FFD889"/>
<path d="M19.3478 29.9059H21.7663V32.8H19.3478V29.9059Z" fill="#FF9131"/>
<path d="M21.7663 29.9059H25.1522V32.8H21.7663V29.9059Z" fill="#FF9131"/>
<path d="M25.1522 29.9059H27.5707V32.8H25.1522V29.9059Z" fill="#FF9131"/>
<path d="M27.5707 29.9059H29.9891V32.8H27.5707V29.9059Z" fill="#FF9131"/>
<path d="M2.41848 32.8H5.80435V35.2118H2.41848V32.8Z" fill="#FF9131"/>
<path d="M5.80435 32.8H8.22283V35.2118H5.80435V32.8Z" fill="#FF9131"/>
<path d="M8.22283 32.8H11.125V35.2118H8.22283V32.8Z" fill="#FFD889"/>
<path d="M11.125 32.8H13.5435V35.2118H11.125V32.8Z" fill="#FFD889"/>
<path d="M13.5435 32.8H16.4457V35.2118H13.5435V32.8Z" fill="#FFD889"/>
<path d="M16.4457 32.8H19.3478V35.2118H16.4457V32.8Z" fill="#FF9131"/>
<path d="M19.3478 32.8H21.7663V35.2118H19.3478V32.8Z" fill="#FF9131"/>
<path d="M21.7663 32.8H25.1522V35.2118H21.7663V32.8Z" fill="#FF9131"/>
<path d="M25.1522 32.8H27.5707V35.2118H25.1522V32.8Z" fill="#FF9131"/>
<path d="M27.5707 32.8H29.9891V35.2118H27.5707V32.8Z" fill="#FF9131"/>
<path d="M5.80435 35.2118H8.22283V38.5882H5.80435V35.2118Z" fill="#FF9131"/>
<path d="M8.22283 35.2118H11.125V38.5882H8.22283V35.2118Z" fill="#FF9131"/>
<path d="M11.125 35.2118H13.5435V38.5882H11.125V35.2118Z" fill="#FF9131"/>
<path d="M13.5435 35.2118H16.4457V38.5882H13.5435V35.2118Z" fill="#FF9131"/>
<path d="M16.4457 35.2118H19.3478V38.5882H16.4457V35.2118Z" fill="#FF9131"/>
<path d="M19.3478 35.2118H21.7663V38.5882H19.3478V35.2118Z" fill="#FF9131"/>
<path d="M21.7663 35.2118H25.1522V38.5882H21.7663V35.2118Z" fill="#FF9131"/>
<path d="M25.1522 35.2118H27.5707V38.5882H25.1522V35.2118Z" fill="#FF9131"/>
<path d="M11.125 38.5882H13.5435V41H11.125V38.5882Z" fill="#FF9131"/>
<path d="M13.5435 38.5882H16.4457V41H13.5435V38.5882Z" fill="#FF9131"/>
<path d="M16.4457 38.5882H19.3478V41H16.4457V38.5882Z" fill="#FF9131"/>
<path d="M19.3478 38.5882H21.7663V41H19.3478V38.5882Z" fill="#FF9131"/>
<path d="M11.125 8.2H13.5435V11.0941H11.125V8.2Z" fill="#1BC02B"/>
<path d="M11.125 8.2H13.5435V11.0941H11.125V8.2Z" fill="#1BC02B"/>
<path d="M11.125 11.0941H13.5435V13.5059H11.125V11.0941Z" fill="#1BC02B"/>
<path d="M11.125 5.30588H13.5435V8.2H11.125V5.30588Z" fill="#1BC02B"/>
<path d="M8.22283 2.41176H11.125V5.30588H8.22283V2.41176Z" fill="#1BC02B"/>
<path d="M5.80435 0H8.22283V2.41176H5.80435V0Z" fill="#1BC02B"/>
<path d="M13.5435 2.41176H16.4457V5.30588H13.5435V2.41176Z" fill="#1BC02B"/>
<path d="M13.5435 5.30588H16.4457V8.2H13.5435V5.30588Z" fill="#1BC02B"/>
<path d="M16.4457 0H19.3478V2.41176H16.4457V0Z" fill="#1BC02B"/>
<path d="M8.22283 15.9176H11.125V19.2941H8.22283V15.9176Z" fill="#A6A6A6"/>
<path d="M21.7663 15.9176H25.1522V19.2941H21.7663V15.9176Z" fill="#A6A6A6"/>
<path d="M8.22283 19.2941H11.125V21.7059H8.22283V19.2941Z" fill="#5648ED"/>
<path d="M21.7663 19.2941H25.1522V21.7059H21.7663V19.2941Z" fill="#5648ED"/>
<path d="M8.22283 21.7059H11.125V24.6H8.22283V21.7059Z" fill="#5648ED"/>
<path d="M21.7663 21.7059H25.1522V24.6H21.7663V21.7059Z" fill="#5648ED"/>
<path d="M27.5707 19.2941H29.9891V21.7059H27.5707V19.2941Z" fill="#383838"/>
<path d="M25.1522 19.2941H27.5707V21.7059H25.1522V19.2941Z" fill="#383838"/>
<path d="M8.22283 27.4941H11.125V24.6H8.22283V27.4941Z" fill="#5648ED"/>
<path d="M21.7663 27.4941H25.1522V24.6H21.7663V27.4941Z" fill="#5648ED"/>
<path d="M5.80435 15.9176H8.22283V19.2941H5.80435V15.9176Z" fill="#383838"/>
<path d="M19.3478 15.9176H21.7663V19.2941H19.3478V15.9176Z" fill="#383838"/>
<path d="M5.80435 19.2941H8.22283V21.7059H5.80435V19.2941Z" fill="#383838"/>
<path d="M19.3478 19.2941H21.7663V21.7059H19.3478V19.2941Z" fill="#383838"/>
<path d="M5.80435 21.7059H8.22283V24.6H5.80435V21.7059Z" fill="#383838"/>
<path d="M19.3478 21.7059H21.7663V24.6H19.3478V21.7059Z" fill="#383838"/>
<path d="M5.80435 24.6H8.22283V27.4941H5.80435V24.6Z" fill="#5648ED"/>
<path d="M19.3478 24.6H21.7663V27.4941H19.3478V24.6Z" fill="#5648ED"/>
<path d="M27.5707 19.2941H29.9891V21.7059H27.5707V19.2941Z" fill="#8E8E8E"/>
<path d="M25.1522 19.2941H27.5707V21.7059H25.1522V19.2941Z" fill="#8E8E8E"/>
<path d="M8.22283 24.6H11.125V27.4941H8.22283V24.6Z" fill="#5648ED"/>
<path d="M21.7663 24.6H25.1522V27.4941H21.7663V24.6Z" fill="#5648ED"/>
<path d="M8.22283 19.2941H11.125V21.7059H8.22283V19.2941Z" fill="#5648ED"/>
<path d="M21.7663 19.2941H25.1522V21.7059H21.7663V19.2941Z" fill="#5648ED"/>
<path d="M8.22283 21.7059H11.125V24.6H8.22283V21.7059Z" fill="#5648ED"/>
<path d="M21.7663 21.7059H25.1522V24.6H21.7663V21.7059Z" fill="#5648ED"/>
<path d="M8.22283 15.9176H11.125V19.2941H8.22283V15.9176Z" fill="#8E8E8E"/>
<path d="M21.7663 15.9176H25.1522V19.2941H21.7663V15.9176Z" fill="#8E8E8E"/>
<path d="M5.80435 24.6H8.22283V27.4941H5.80435V24.6Z" fill="#5648ED"/>
<path d="M19.3478 24.6H21.7663V27.4941H19.3478V24.6Z" fill="#5648ED"/>
<path d="M5.80435 19.2941H8.22283V21.7059H5.80435V19.2941Z" fill="#8E8E8E"/>
<path d="M19.3478 19.2941H21.7663V21.7059H19.3478V19.2941Z" fill="#8E8E8E"/>
<path d="M5.80435 21.7059H8.22283V24.6H5.80435V21.7059Z" fill="#8E8E8E"/>
<path d="M19.3478 21.7059H21.7663V24.6H19.3478V21.7059Z" fill="#8E8E8E"/>
<path d="M5.80435 15.9176H8.22283V19.2941H5.80435V15.9176Z" fill="#8E8E8E"/>
<path d="M19.3478 15.9176H21.7663V19.2941H19.3478V15.9176Z" fill="#8E8E8E"/>
<path d="M2.41848 24.6H5.80435V27.4941H2.41848V24.6Z" fill="#5648ED"/>
<path d="M16.4457 24.6H19.3478V27.4941H16.4457V24.6Z" fill="#5648ED"/>
<path d="M2.41848 19.2941H5.80435V21.7059H2.41848V19.2941Z" fill="#8E8E8E"/>
<path d="M16.4457 19.2941H19.3478V21.7059H16.4457V19.2941Z" fill="#8E8E8E"/>
<path d="M2.41848 21.7059H5.80435V24.6H2.41848V21.7059Z" fill="#8E8E8E"/>
<path d="M16.4457 21.7059H19.3478V24.6H16.4457V21.7059Z" fill="#8E8E8E"/>
<path d="M2.41848 15.9176H5.80435V19.2941H2.41848V15.9176Z" fill="#8E8E8E"/>
<path d="M16.4457 15.9176H19.3478V19.2941H16.4457V15.9176Z" fill="#8E8E8E"/>
<path d="M0 24.6H2.41848V27.4941H0V24.6Z" fill="#5648ED"/>
<path d="M13.5435 24.6H16.4457V27.4941H13.5435V24.6Z" fill="#5648ED"/>
<path d="M0 19.2941H2.41848V21.7059H0V19.2941Z" fill="#8E8E8E"/>
<path d="M13.5435 19.2941H16.4457V21.7059H13.5435V19.2941Z" fill="#8E8E8E"/>
<path d="M0 21.7059H2.41848V24.6H0V21.7059Z" fill="#8E8E8E"/>
<path d="M13.5435 21.7059H16.4457V24.6H13.5435V21.7059Z" fill="#8E8E8E"/>
<path d="M0 15.9176H2.41848V19.2941H0V15.9176Z" fill="#8E8E8E"/>
<path d="M13.5435 15.9176H16.4457V19.2941H13.5435V15.9176Z" fill="#8E8E8E"/>
<path d="M27.5707 19.2941H29.9891V21.7059H27.5707V19.2941Z" fill="#5648ED"/>
<path d="M27.5707 19.2941H29.9891V21.7059H27.5707V19.2941Z" fill="#5648ED"/>
<path d="M29.9891 19.2941H32.8913V21.7059H29.9891V19.2941Z" fill="#5648ED"/>
<path d="M25.1522 19.2941H27.5707V21.7059H25.1522V19.2941Z" fill="#5648ED"/>
<path d="M5.80435 19.2941H8.22283V21.7059H5.80435V19.2941Z" fill="#5648ED"/>
<path d="M5.80435 19.2941H8.22283V21.7059H5.80435V19.2941Z" fill="white"/>
<path d="M19.3478 19.2941H21.7663V21.7059H19.3478V19.2941Z" fill="#5648ED"/>
<path d="M19.3478 19.2941H21.7663V21.7059H19.3478V19.2941Z" fill="white"/>
<path d="M2.41848 19.2941H5.80435V21.7059H2.41848V19.2941Z" fill="#5648ED"/>
<path d="M2.41848 19.2941H5.80435V21.7059H2.41848V19.2941Z" fill="black"/>
<path d="M16.4457 19.2941H19.3478V21.7059H16.4457V19.2941Z" fill="#5648ED"/>
<path d="M16.4457 19.2941H19.3478V21.7059H16.4457V19.2941Z" fill="black"/>
<path d="M8.22283 21.7059H11.125V24.6H8.22283V21.7059Z" fill="#5648ED"/>
<path d="M21.7663 21.7059H25.1522V24.6H21.7663V21.7059Z" fill="#5648ED"/>
<path d="M8.22283 19.2941H11.125V21.7059H8.22283V19.2941Z" fill="#5648ED"/>
<path d="M21.7663 19.2941H25.1522V21.7059H21.7663V19.2941Z" fill="#5648ED"/>
<path d="M5.80435 21.7059H8.22283V24.6H5.80435V21.7059Z" fill="#5648ED"/>
<path d="M5.80435 21.7059H8.22283V24.6H5.80435V21.7059Z" fill="white"/>
<path d="M19.3478 21.7059H21.7663V24.6H19.3478V21.7059Z" fill="#5648ED"/>
<path d="M19.3478 21.7059H21.7663V24.6H19.3478V21.7059Z" fill="white"/>
<path d="M2.41848 21.7059H5.80435V24.6H2.41848V21.7059Z" fill="#5648ED"/>
<path d="M2.41848 21.7059H5.80435V24.6H2.41848V21.7059Z" fill="black"/>
<path d="M16.4457 21.7059H19.3478V24.6H16.4457V21.7059Z" fill="#5648ED"/>
<path d="M16.4457 21.7059H19.3478V24.6H16.4457V21.7059Z" fill="black"/>
<path d="M8.22283 24.6H11.125V27.4941H8.22283V24.6Z" fill="#5648ED"/>
<path d="M21.7663 24.6H25.1522V27.4941H21.7663V24.6Z" fill="#5648ED"/>
<path d="M5.80435 24.6H8.22283V27.4941H5.80435V24.6Z" fill="#5648ED"/>
<path d="M5.80435 24.6H8.22283V27.4941H5.80435V24.6Z" fill="#5648ED"/>
<path d="M19.3478 24.6H21.7663V27.4941H19.3478V24.6Z" fill="#5648ED"/>
<path d="M19.3478 24.6H21.7663V27.4941H19.3478V24.6Z" fill="#5648ED"/>
<path d="M2.41848 24.6H5.80435V27.4941H2.41848V24.6Z" fill="#5648ED"/>
<path d="M2.41848 24.6H5.80435V27.4941H2.41848V24.6Z" fill="#5648ED"/>
<path d="M16.4457 24.6H19.3478V27.4941H16.4457V24.6Z" fill="#5648ED"/>
<path d="M16.4457 24.6H19.3478V27.4941H16.4457V24.6Z" fill="#5648ED"/>
<path d="M11.125 19.2941H13.5435V21.7059H11.125V19.2941Z" fill="#5648ED"/>
<path d="M8.22283 15.9176H11.125V19.2941H8.22283V15.9176Z" fill="#5648ED"/>
<path d="M21.7663 15.9176H25.1522V19.2941H21.7663V15.9176Z" fill="#5648ED"/>
<path d="M5.80435 15.9176H8.22283V19.2941H5.80435V15.9176Z" fill="#5648ED"/>
<path d="M19.3478 15.9176H21.7663V19.2941H19.3478V15.9176Z" fill="#5648ED"/>
<path d="M2.41848 15.9176H5.80435V19.2941H2.41848V15.9176Z" fill="#5648ED"/>
<path d="M16.4457 15.9176H19.3478V19.2941H16.4457V15.9176Z" fill="#5648ED"/>
<path d="M0 15.9176H2.41848V19.2941H0V15.9176Z" fill="#5648ED"/>
<path d="M13.5435 15.9176H16.4457V19.2941H13.5435V15.9176Z" fill="#5648ED"/>
<path d="M0 19.2941H2.41848V21.7059H0V19.2941Z" fill="#5648ED"/>
<path d="M13.5435 19.2941H16.4457V21.7059H13.5435V19.2941Z" fill="#5648ED"/>
<path d="M0 21.7059H2.41848V24.6H0V21.7059Z" fill="#5648ED"/>
<path d="M13.5435 21.7059H16.4457V24.6H13.5435V21.7059Z" fill="#5648ED"/>
<path d="M0 24.6H2.41848V27.4941H0V24.6Z" fill="#5648ED"/>
<path d="M13.5435 24.6H16.4457V27.4941H13.5435V24.6Z" fill="#5648ED"/>
<path d="M29.9891 21.7059H32.8913V24.6H29.9891V21.7059Z" fill="#5648ED"/>
<path d="M61.6596 20.9597C61.6596 22.1608 61.4505 23.2618 61.0324 24.2628C60.6143 25.2495 60.0303 26.1004 59.2804 26.8152C58.5451 27.516 57.6654 28.0593 56.6417 28.4454C55.618 28.8314 54.5076 29.0245 53.3109 29.0245C52.1141 29.0245 51.0037 28.8314 49.98 28.4454C48.9705 28.0593 48.0911 27.516 47.3413 26.8152C46.6059 26.1004 46.029 25.2495 45.6109 24.2628C45.1929 23.2618 44.9837 22.1608 44.9837 20.9597C44.9837 19.7441 45.1929 18.6502 45.6109 17.678C46.029 16.6913 46.6059 15.8548 47.3413 15.1684C48.0911 14.4821 48.9705 13.953 49.98 13.5812C51.0037 13.2094 52.1141 13.0235 53.3109 13.0235C54.5076 13.0235 55.618 13.2094 56.6417 13.5812C57.6654 13.953 58.5451 14.4821 59.2804 15.1684C60.0303 15.8548 60.6143 16.6913 61.0324 17.678C61.4505 18.6502 61.6596 19.7441 61.6596 20.9597ZM57.7015 20.9597C57.7015 20.3018 57.5934 19.6871 57.3771 19.115C57.1608 18.543 56.858 18.057 56.4687 17.6565C56.0939 17.2419 55.6323 16.9202 55.0844 16.6913C54.5508 16.4483 53.9597 16.3267 53.3109 16.3267C52.662 16.3267 52.0709 16.4483 51.5373 16.6913C51.0037 16.9202 50.5423 17.2419 50.153 17.6565C49.7637 18.057 49.4609 18.543 49.2446 19.115C49.0428 19.6871 48.9418 20.3018 48.9418 20.9597C48.9418 21.646 49.0499 22.2824 49.2662 22.8686C49.4825 23.4407 49.7782 23.934 50.153 24.3486C50.5423 24.7632 51.0037 25.0923 51.5373 25.3352C52.0709 25.5641 52.662 25.6784 53.3109 25.6784C53.9597 25.6784 54.5508 25.5641 55.0844 25.3352C55.618 25.0923 56.0794 24.7632 56.4687 24.3486C56.858 23.934 57.1608 23.4407 57.3771 22.8686C57.5934 22.2824 57.7015 21.646 57.7015 20.9597ZM70.8862 20.8095C70.7277 20.7666 70.5691 20.7381 70.4103 20.7237C70.2663 20.7093 70.122 20.7023 69.9778 20.7023C69.5019 20.7023 69.0984 20.7881 68.7665 20.9597C68.4495 21.1312 68.1899 21.3387 67.9879 21.5817C67.8006 21.8247 67.6635 22.0894 67.5769 22.3753C67.4904 22.6612 67.4472 22.9115 67.4472 23.126V28.6169H63.9V17.9353H67.3174V19.4797H67.3607C67.6347 18.9364 68.024 18.493 68.5286 18.1498C69.0335 17.8067 69.6175 17.6351 70.2806 17.6351C70.4249 17.6351 70.5617 17.6421 70.6915 17.6565C70.8358 17.6709 70.9511 17.6923 71.0376 17.7209L70.8862 20.8095ZM78.4966 23.9625H78.0424C77.653 23.9625 77.2566 23.984 76.8528 24.0269C76.4634 24.0554 76.1103 24.1197 75.7929 24.2199C75.4901 24.3201 75.238 24.4702 75.0359 24.6703C74.8342 24.8563 74.7331 25.1064 74.7331 25.421C74.7331 25.6211 74.7764 25.7927 74.8629 25.9358C74.9639 26.0789 75.0866 26.1932 75.2306 26.279C75.3749 26.3648 75.5408 26.4292 75.7281 26.472C75.9156 26.5006 76.0957 26.5149 76.2688 26.5149C76.9899 26.5149 77.5378 26.3219 77.9126 25.9358C78.3019 25.5354 78.4966 24.9991 78.4966 24.3271V23.9625ZM71.9862 19.3939C72.6209 18.7933 73.3563 18.3429 74.1924 18.0426C75.0433 17.7423 75.9085 17.5922 76.7879 17.5922C77.6963 17.5922 78.4607 17.7065 79.0806 17.9353C79.7152 18.1498 80.2269 18.493 80.6162 18.9649C81.0055 19.4224 81.2867 20.0088 81.4597 20.7237C81.6473 21.4245 81.7409 22.261 81.7409 23.2333V28.6169H78.4966V27.4802H78.4317C78.1579 27.9235 77.7396 28.2667 77.1772 28.5097C76.6294 28.7527 76.0309 28.8743 75.382 28.8743C74.9494 28.8743 74.5026 28.817 74.041 28.7027C73.5797 28.5884 73.1542 28.4025 72.7649 28.1451C72.3901 27.8877 72.0802 27.5445 71.8348 27.1155C71.5898 26.6865 71.4671 26.1574 71.4671 25.5283C71.4671 24.7561 71.6763 24.1341 72.0944 23.6622C72.527 23.1904 73.0751 22.8257 73.7382 22.5683C74.4161 22.3109 75.1657 22.1394 75.9876 22.0536C76.8095 21.9678 77.6098 21.9249 78.3884 21.9249V21.7533C78.3884 21.2241 78.2012 20.838 77.8261 20.595C77.4513 20.3376 76.9899 20.2089 76.4418 20.2089C75.9372 20.2089 75.4469 20.3162 74.971 20.5307C74.5097 20.7452 74.1133 21.0026 73.7814 21.3028L71.9862 19.3939ZM91.4611 28.6169V22.7828C91.4611 22.4825 91.4323 22.1966 91.3746 21.9249C91.3313 21.6531 91.2522 21.4171 91.1367 21.217C91.0214 21.0026 90.8555 20.838 90.6392 20.7237C90.4374 20.595 90.1779 20.5307 89.8605 20.5307C89.5435 20.5307 89.2623 20.595 89.017 20.7237C88.7865 20.838 88.5918 21.0026 88.433 21.217C88.2745 21.4315 88.1518 21.6819 88.0653 21.9678C87.9933 22.2395 87.9572 22.5254 87.9572 22.8257V28.6169H84.3884V17.9353H87.8274V19.4153H87.8707C88.0005 19.1864 88.1664 18.9649 88.3681 18.7504C88.5844 18.5215 88.8298 18.3285 89.1035 18.1713C89.3921 18.0141 89.702 17.8854 90.0336 17.7852C90.3654 17.685 90.7186 17.6351 91.0934 17.6351C91.8145 17.6351 92.4273 17.7638 92.9319 18.0211C93.4367 18.2785 93.8403 18.6147 94.1431 19.0292C94.4604 19.4297 94.6838 19.8943 94.8136 20.4234C94.9579 20.9526 95.0299 21.4815 95.0299 22.0107V28.6169H91.4611ZM109.137 27.6088C109.137 28.6528 108.985 29.5607 108.682 30.3329C108.38 31.105 107.954 31.7414 107.406 32.2418C106.858 32.7566 106.188 33.1356 105.395 33.3786C104.616 33.636 103.751 33.7647 102.799 33.7647C101.848 33.7647 100.867 33.6216 99.8578 33.3357C98.8629 33.0498 97.9977 32.635 97.2623 32.0917L99.0359 29.5821C99.555 30.0396 100.124 30.3758 100.745 30.5903C101.379 30.8191 101.999 30.9334 102.605 30.9334C103.643 30.9334 104.407 30.6617 104.897 30.1184C105.402 29.5751 105.654 28.8529 105.654 27.952V27.3086H105.589C105.258 27.7375 104.811 28.0807 104.248 28.3381C103.686 28.5955 103.044 28.7242 102.323 28.7242C101.502 28.7242 100.773 28.5811 100.139 28.2952C99.5046 27.9949 98.9639 27.5945 98.5168 27.0941C98.0842 26.5937 97.7527 26.0146 97.5219 25.3567C97.2911 24.6847 97.1758 23.9769 97.1758 23.2333C97.1758 22.4896 97.2911 21.7818 97.5219 21.1098C97.7527 20.4378 98.0842 19.8443 98.5168 19.3295C98.9639 18.8148 99.5046 18.4072 100.139 18.1069C100.773 17.7923 101.494 17.6351 102.302 17.6351C102.979 17.6351 103.628 17.7708 104.248 18.0426C104.869 18.3144 105.366 18.736 105.741 19.3081H105.784V17.9353H109.137V27.6088ZM105.762 23.2118C105.762 22.8542 105.698 22.511 105.568 22.1822C105.453 21.8535 105.28 21.5673 105.049 21.3243C104.818 21.0669 104.544 20.8668 104.227 20.7237C103.91 20.5806 103.549 20.5092 103.145 20.5092C102.742 20.5092 102.381 20.5806 102.064 20.7237C101.761 20.8668 101.502 21.0598 101.285 21.3028C101.069 21.5458 100.903 21.832 100.788 22.1608C100.673 22.4896 100.615 22.8401 100.615 23.2118C100.615 23.5694 100.673 23.9126 100.788 24.2414C100.903 24.5701 101.069 24.8634 101.285 25.1208C101.502 25.3638 101.761 25.5641 102.064 25.7213C102.381 25.8644 102.742 25.9358 103.145 25.9358C103.549 25.9358 103.91 25.8644 104.227 25.7213C104.558 25.5641 104.832 25.3638 105.049 25.1208C105.28 24.8778 105.453 24.5916 105.568 24.2628C105.698 23.934 105.762 23.5835 105.762 23.2118ZM119.372 22.0536C119.372 21.4959 119.191 21.0169 118.831 20.6165C118.485 20.216 117.959 20.0159 117.252 20.0159C116.906 20.0159 116.588 20.0732 116.3 20.1875C116.012 20.2877 115.759 20.4305 115.543 20.6165C115.327 20.8025 115.154 21.024 115.024 21.2814C114.894 21.5244 114.822 21.7818 114.808 22.0536H119.372ZM122.637 23.4048C122.637 23.5479 122.637 23.6907 122.637 23.8338C122.637 23.9769 122.63 24.1127 122.616 24.2414H114.808C114.837 24.5416 114.923 24.8134 115.067 25.0564C115.226 25.2994 115.421 25.5139 115.651 25.6999C115.896 25.8715 116.163 26.0072 116.452 26.1074C116.754 26.2076 117.064 26.2576 117.382 26.2576C117.944 26.2576 118.42 26.1574 118.809 25.9573C119.198 25.7428 119.516 25.471 119.761 25.1422L122.227 26.6865C121.722 27.4158 121.051 27.9805 120.215 28.381C119.393 28.7671 118.434 28.9601 117.338 28.9601C116.531 28.9601 115.767 28.8385 115.046 28.5955C114.325 28.3381 113.69 27.9735 113.142 27.5016C112.609 27.0153 112.184 26.4221 111.866 25.7213C111.563 25.0206 111.412 24.2199 111.412 23.319C111.412 22.4467 111.563 21.6604 111.866 20.9597C112.169 20.2448 112.58 19.6442 113.099 19.1579C113.618 18.6576 114.231 18.2715 114.938 17.9997C115.644 17.7279 116.408 17.5922 117.23 17.5922C118.023 17.5922 118.751 17.7279 119.415 17.9997C120.078 18.2571 120.648 18.6361 121.123 19.1365C121.599 19.6369 121.967 20.2448 122.227 20.9597C122.501 21.6745 122.637 22.4896 122.637 23.4048ZM144.736 20.9811C144.736 22.3109 144.484 23.4621 143.979 24.4344C143.489 25.3925 142.833 26.1862 142.011 26.8152C141.203 27.4302 140.288 27.8877 139.264 28.188C138.24 28.4739 137.202 28.6169 136.149 28.6169H130.439V13.4311H135.976C137.058 13.4311 138.125 13.5598 139.177 13.8171C140.23 14.0602 141.167 14.4749 141.989 15.0612C142.811 15.6332 143.474 16.4054 143.979 17.3777C144.484 18.3499 144.736 19.5511 144.736 20.9811ZM140.886 20.9811C140.886 20.1231 140.742 19.4153 140.453 18.8577C140.179 18.2856 139.805 17.8352 139.329 17.5064C138.867 17.1632 138.334 16.9202 137.728 16.7771C137.137 16.634 136.524 16.5626 135.89 16.5626H134.051V25.4425H135.803C136.466 25.4425 137.101 25.3711 137.707 25.228C138.326 25.0708 138.867 24.8205 139.329 24.4773C139.805 24.1341 140.179 23.6766 140.453 23.1046C140.742 22.5325 140.886 21.8247 140.886 20.9811ZM157.043 28.6169L155.853 25.6355H149.927L148.802 28.6169H144.779L151.203 13.4311H154.793L161.152 28.6169H157.043ZM152.933 17.4849L150.987 22.697H154.837L152.933 17.4849ZM178 20.9597C178 22.1608 177.791 23.2618 177.373 24.2628C176.954 25.2495 176.37 26.1004 175.621 26.8152C174.885 27.516 174.006 28.0593 172.982 28.4454C171.958 28.8314 170.848 29.0245 169.651 29.0245C168.454 29.0245 167.344 28.8314 166.32 28.4454C165.311 28.0593 164.431 27.516 163.682 26.8152C162.946 26.1004 162.369 25.2495 161.951 24.2628C161.533 23.2618 161.324 22.1608 161.324 20.9597C161.324 19.7441 161.533 18.6502 161.951 17.678C162.369 16.6913 162.946 15.8548 163.682 15.1684C164.431 14.4821 165.311 13.953 166.32 13.5812C167.344 13.2094 168.454 13.0235 169.651 13.0235C170.848 13.0235 171.958 13.2094 172.982 13.5812C174.006 13.953 174.885 14.4821 175.621 15.1684C176.37 15.8548 176.954 16.6913 177.373 17.678C177.791 18.6502 178 19.7441 178 20.9597ZM174.042 20.9597C174.042 20.3018 173.934 19.6871 173.717 19.115C173.501 18.543 173.198 18.057 172.809 17.6565C172.434 17.2419 171.973 16.9202 171.425 16.6913C170.891 16.4483 170.3 16.3267 169.651 16.3267C169.002 16.3267 168.411 16.4483 167.878 16.6913C167.344 16.9202 166.883 17.2419 166.493 17.6565C166.104 18.057 165.801 18.543 165.585 19.115C165.383 19.6871 165.282 20.3018 165.282 20.9597C165.282 21.646 165.39 22.2824 165.607 22.8686C165.823 23.4407 166.118 23.934 166.493 24.3486C166.883 24.7632 167.344 25.0923 167.878 25.3352C168.411 25.5641 169.002 25.6784 169.651 25.6784C170.3 25.6784 170.891 25.5641 171.425 25.3352C171.958 25.0923 172.42 24.7632 172.809 24.3486C173.198 23.934 173.501 23.4407 173.717 22.8686C173.934 22.2824 174.042 21.646 174.042 20.9597Z" fill="#FF9131"/>
</svg>
