<svg xmlns="http://www.w3.org/2000/svg" width="38.921" height="36.274" viewBox="0 0 38.921 36.274">
  <path id="Wallet" d="M35.059,10.023H6.081a1.3,1.3,0,0,1,0-2.591H35.272a1.257,1.257,0,0,0,1.216-1.3A3.773,3.773,0,0,0,32.84,2.25H4.865A5.031,5.031,0,0,0,0,7.432v25.91a5.031,5.031,0,0,0,4.865,5.182H35.059a3.878,3.878,0,0,0,3.862-3.887V13.91A3.878,3.878,0,0,0,35.059,10.023ZM31.623,26.865a2.6,2.6,0,1,1,2.433-2.591A2.516,2.516,0,0,1,31.623,26.865Z" transform="translate(0 -2.25)" fill="#2b2b2b"/>
</svg>
